<svg xmlns="http://www.w3.org/2000/svg" viewBox="0 0 64 64" role="img" aria-label="Love Album icon">
  <defs>
    <linearGradient id="bg" x1="8" y1="6" x2="56" y2="60" gradientUnits="userSpaceOnUse">
      <stop stop-color="#fff7f1"/>
      <stop offset="0.55" stop-color="#f7d7dc"/>
      <stop offset="1" stop-color="#b44b6b"/>
    </linearGradient>
    <linearGradient id="heart" x1="22" y1="24" x2="43" y2="44" gradientUnits="userSpaceOnUse">
      <stop stop-color="#d85b79"/>
      <stop offset="1" stop-color="#8b2f4d"/>
    </linearGradient>
    <filter id="shadow" x="4" y="5" width="56" height="58" color-interpolation-filters="sRGB" filterUnits="userSpaceOnUse">
      <feDropShadow dx="0" dy="5" stdDeviation="4" flood-color="#6f263f" flood-opacity="0.22"/>
    </filter>
  </defs>

  <rect width="64" height="64" rx="18" fill="url(#bg)"/>
  <path fill="#fffaf6" fill-opacity="0.34" d="M9 46c10.5-13 24.5-17 46-15v24H9z"/>
  <circle cx="50" cy="13" r="5" fill="#fffaf6" fill-opacity="0.48"/>

  <g filter="url(#shadow)" transform="rotate(-7 32 34)">
    <rect x="15" y="12" width="34" height="42" rx="5" fill="#fffdf9"/>
    <rect x="19" y="17" width="26" height="24" rx="3" fill="#f1b8c4"/>
    <path fill="#fff2e9" d="M19 35l7-6 6 5 5-4 8 7v4H19z"/>
    <path fill="url(#heart)" d="M32 36.8c-.42-.38-8.2-7.46-8.2-13.1 0-3.08 2.18-5.46 5.04-5.46 1.7 0 3.08.82 4 2.14.92-1.32 2.3-2.14 4-2.14 2.86 0 5.04 2.38 5.04 5.46 0 5.64-7.78 12.72-8.2 13.1a1.25 1.25 0 0 1-1.68 0z"/>
    <rect x="22" y="45" width="20" height="3" rx="1.5" fill="#e6bfad"/>
  </g>

  <g transform="rotate(8 48 47)">
    <rect x="42" y="39" width="13" height="14" rx="3" fill="#fff7f1" stroke="#8b2f4d" stroke-width="1.7"/>
    <path stroke="#8b2f4d" stroke-linecap="round" stroke-width="1.7" d="M45 37.5v4M52 37.5v4M44 44h9"/>
    <circle cx="48.5" cy="48.5" r="1.7" fill="#d85b79"/>
  </g>
</svg>
